<svg width="1617" height="1617" viewBox="0 0 1617 1617" fill="none" xmlns="http://www.w3.org/2000/svg">
<rect width="1617" height="1617" rx="808.5" fill="white"/>
<path d="M349.912 626.659C354.493 614.751 360.705 604.544 368.549 596.038C376.394 587.532 385.37 580.716 395.478 575.591C405.594 570.132 416.511 566.191 428.23 563.766C439.949 561.341 451.975 560.257 464.305 560.512L522.293 561.712L495.12 473.131L485.012 502.428C482.187 510.038 479.532 517.484 477.048 524.768C474.563 532.051 472.793 537.016 471.738 539.661C451.416 538.907 431.688 541.666 412.554 547.938C393.761 553.884 378.703 564.575 367.381 580.01C368.797 576.039 370.747 570.411 373.232 563.128C376.049 555.851 379.055 547.578 382.247 538.309C385.773 529.047 389.479 519.121 393.366 508.533C397.252 497.944 401.135 487.522 405.015 477.267L434.675 397.364C447.383 363.286 468.401 346.551 497.728 347.158C527.055 347.765 547.362 365.356 558.649 399.93L633.851 632.536C637.275 644.276 638.908 653.979 638.75 661.644C638.591 669.309 636.106 676.592 631.296 683.494C627.527 688.417 623.288 691.83 618.581 693.733C614.208 695.643 608.678 697.029 601.992 697.891C587.634 698.927 576.695 695.867 569.175 688.71C561.661 681.219 555.561 669.924 550.872 654.824L546.163 640.723L437.186 638.467C436.485 640.12 435.427 642.932 434.011 646.903C432.928 650.882 431.336 655.35 429.232 660.307C427.136 664.932 424.54 669.546 421.444 674.149C418.682 678.76 415.436 682.527 411.708 685.45C403.246 691.61 393.849 694.583 383.518 694.369C376.519 694.224 370.048 692.756 364.105 689.966C358.168 686.843 353.752 682.75 350.856 677.689C346.675 670.268 344.498 662.721 344.323 655.049C344.149 647.377 346.011 637.914 349.912 626.659ZM661.462 400.558C661.752 386.561 664.993 374.959 671.185 365.751C677.383 356.211 688.314 351.603 703.978 351.927C719.308 352.244 729.872 357.297 735.671 367.086C741.803 376.882 744.727 388.612 744.444 402.275L740.016 616.23C728.386 614.322 717.617 611.098 707.709 606.559C697.801 602.02 689.087 596.171 681.567 589.014C674.387 581.531 668.73 572.912 664.598 563.157C660.466 553.403 658.527 542.361 658.782 530.03L661.462 400.558ZM657.137 609.513L658.068 564.523C661.077 580.255 666.987 592.713 675.799 601.897C684.951 610.755 694.481 617.454 704.389 621.993C714.297 626.533 723.407 629.389 731.718 630.561C740.369 631.407 745.86 631.854 748.193 631.902C755.858 632.061 761.295 635.174 764.504 641.242C768.045 647.316 769.737 654.186 769.578 661.851C769.309 674.848 763.94 684.573 753.471 691.024C743.342 697.149 731.779 700.077 718.782 699.808C706.118 699.546 695.665 697.162 687.423 692.657C679.521 687.826 673.154 681.36 668.32 673.258C663.82 665.163 660.681 655.763 658.902 645.057C657.463 634.025 656.875 622.177 657.137 609.513ZM826.903 495.002C836.462 484.197 848.812 475.451 863.954 468.763C879.428 462.082 897.664 458.958 918.659 459.393C934.989 459.731 950.097 462.711 963.984 468.333C977.877 473.621 989.727 481.035 999.531 490.573C1009.67 500.118 1017.44 511.448 1022.83 524.563C1028.23 537.677 1030.77 552.066 1030.44 567.729C1029.73 602.055 1014.71 618.915 985.385 618.308L876.908 616.062C876.805 621.061 878.385 625.262 881.648 628.663C885.245 632.072 889.522 634.827 894.48 636.93C899.444 638.7 904.582 640.14 909.894 641.25C915.212 642.027 919.704 642.454 923.37 642.53C931.035 642.688 938.711 642.347 946.396 641.506C954.089 640.331 961.115 639.143 967.475 637.941C971.828 637.031 975.507 636.441 978.514 636.169C981.853 635.905 984.689 635.797 987.022 635.845C996.354 636.038 1003.13 639.013 1007.34 644.768C1011.89 650.53 1014.07 657.743 1013.9 666.408C1013.7 675.739 1009.71 683.325 1001.92 689.165C994.473 694.679 985.548 698.995 975.148 702.114C965.088 704.906 954.549 706.689 943.531 707.461C932.839 708.573 924.16 709.06 917.495 708.922C898.832 708.536 880.732 705.161 863.193 698.796C845.994 692.106 832.038 681.815 821.323 667.923C812.886 656.746 808.312 644.149 807.602 630.131C807.225 616.12 810.99 603.362 818.897 591.857C825.776 581.664 834.943 573.685 846.398 567.921C858.193 561.83 871.756 558.944 887.086 559.261L954.571 560.658C954.757 551.66 951.754 543.762 945.56 536.966C939.699 530.177 930.277 526.314 917.293 525.379C905.31 524.464 892.611 525.868 879.198 529.591C866.125 532.988 853.837 538.735 842.333 546.832C831.17 554.603 821.458 564.737 813.198 577.236C805.278 589.408 800.479 603.811 798.801 620.447C793.577 599.001 793.029 577.152 797.157 554.899C801.618 532.653 811.533 512.687 826.903 495.002ZM1092 637.018C1093.67 637.053 1096.66 637.448 1100.98 638.204C1105.3 638.96 1110.28 639.897 1115.93 641.014C1121.91 642.138 1128.22 643.102 1134.87 643.907C1141.52 644.711 1147.85 645.176 1153.85 645.3C1161.84 645.465 1168.7 644.607 1174.4 642.725C1180.11 640.842 1183.02 637.402 1183.12 632.403C1183.2 628.404 1180.93 625.523 1176.3 623.76C1172.33 622.011 1167.36 620.407 1161.39 618.95C1155.76 617.5 1149.62 616.039 1142.98 614.568C1136.35 612.764 1129.39 610.786 1122.1 608.635C1115.15 606.157 1108.38 603.183 1101.78 599.712C1103.58 593.415 1106.03 587.631 1109.14 582.361C1112.26 576.758 1116.19 571.838 1120.95 567.602C1127.41 561.401 1134.83 557.387 1143.2 555.56C1151.91 553.407 1160.58 553.419 1169.21 555.598C1178.16 557.784 1188.28 560.494 1199.54 563.728C1210.82 566.629 1221.39 571.182 1231.27 577.387C1241.15 583.26 1249.49 591.267 1256.28 601.41C1263.08 611.219 1266.31 624.123 1265.98 640.119C1265.71 653.116 1262.98 664.062 1257.8 672.957C1252.61 681.851 1245.62 689.208 1236.84 695.028C1228.38 700.854 1218.62 705.32 1207.55 708.425C1196.83 711.203 1185.62 712.972 1173.93 713.73C1158.58 714.746 1143.42 714.265 1128.45 712.289C1113.83 710.319 1101.21 707.557 1090.62 704.004C1081.02 700.804 1073.6 696.65 1068.37 691.541C1063.48 686.105 1060.75 681.048 1060.18 676.368C1058.98 670.008 1059.1 664.343 1060.54 659.372C1061.97 654.4 1064.22 650.279 1067.29 647.009C1070.37 643.405 1074.09 640.815 1078.46 639.238C1082.82 637.662 1087.34 636.922 1092 637.018ZM1064.07 536.919C1064.37 522.588 1067.45 510.65 1073.31 501.102C1079.51 491.562 1087.34 484.055 1096.78 478.583C1106.24 472.778 1116.99 468.833 1129.04 466.748C1141.08 464.664 1153.1 463.745 1165.1 463.994C1169.77 464.09 1176.43 464.562 1185.08 465.407C1194.06 466.26 1203.2 467.616 1212.5 469.476C1221.79 471.335 1230.24 473.844 1237.85 477.002C1245.45 480.16 1250.54 484.099 1253.11 488.82C1256.96 495.902 1258.83 502.108 1258.72 507.441C1258.66 510.44 1257.92 513.925 1256.51 517.897C1255.42 521.875 1253.34 525.666 1250.27 529.27C1247.53 532.548 1243.98 535.308 1239.59 537.551C1235.21 539.794 1229.86 540.85 1223.53 540.719C1220.86 540.664 1216.87 540.248 1211.55 539.471C1206.57 538.368 1200.93 537.251 1194.61 536.12C1188.3 534.989 1181.99 534.025 1175.67 533.227C1169.35 532.43 1163.69 532.312 1158.67 532.876C1151.66 533.73 1144.44 535.915 1137.03 539.429C1129.97 542.617 1123.37 546.981 1117.26 552.523C1111.48 558.071 1106.51 564.469 1102.36 571.718C1098.21 578.967 1095.71 586.917 1094.86 595.568C1085.65 589.71 1078.14 582.219 1072.32 573.097C1066.51 563.975 1063.76 551.915 1064.07 536.919ZM418.295 901.633C421.425 895.363 426.028 890.457 432.102 886.915C438.184 883.04 446.557 881.213 457.221 881.434L540.203 883.152C557.533 883.51 575.314 886.212 593.547 891.257C612.12 895.976 627.947 904.472 641.03 916.745L642.998 918.286C652.81 927.491 660.934 937.662 667.372 948.797C673.81 959.933 678.734 971.704 682.144 984.111C685.888 996.524 688.292 1009.24 689.356 1022.27C690.76 1034.97 691.328 1047.81 691.059 1060.81C690.507 1087.47 687.011 1111.41 680.571 1132.61C674.131 1153.81 664.42 1171.95 651.439 1187.02C638.464 1201.75 622.226 1213.09 602.725 1221.02C583.23 1228.62 559.985 1232.14 532.991 1231.58L450.009 1229.86C433.346 1229.51 421.619 1224.27 414.827 1214.13C408.376 1203.66 405.309 1190.76 405.626 1175.43L410.158 956.476C414.637 965.571 420.161 972.52 426.73 977.324C433.632 982.134 440.895 985.618 448.518 987.777C456.475 989.942 464.449 991.274 472.441 991.773C480.772 991.945 488.771 992.111 496.436 992.269L493.269 1145.24L534.761 1146.1C548.424 1146.38 559.637 1144.28 568.398 1139.79C577.167 1134.97 584.133 1128.61 589.297 1120.72C594.469 1112.49 597.998 1103.06 599.885 1092.43C602.105 1081.81 603.336 1070.66 603.578 1059C603.819 1047.34 603.05 1036.15 601.272 1025.45C599.833 1014.41 596.697 1004.85 591.864 996.745C587.037 988.31 580.34 981.67 571.771 976.825C563.21 971.647 552.098 968.916 538.434 968.633L453.452 966.874C445.787 966.716 438.83 964.571 432.581 960.441C426.665 956.318 421.936 951.219 418.394 945.144C415.193 938.743 413.338 931.703 412.83 924.024C412.655 916.353 414.477 908.889 418.295 901.633ZM760.667 1028.75C770.226 1017.94 782.576 1009.19 797.718 1002.51C813.193 995.825 831.428 992.702 852.424 993.136C868.754 993.474 883.862 996.454 897.748 1002.08C911.642 1007.36 923.491 1014.78 933.296 1024.32C943.434 1033.86 951.201 1045.19 956.597 1058.31C961.994 1071.42 964.53 1085.81 964.206 1101.47C963.495 1135.8 948.476 1152.66 919.149 1152.05L810.673 1149.81C810.569 1154.8 812.149 1159.01 815.413 1162.41C819.01 1165.82 823.287 1168.57 828.244 1170.67C833.209 1172.44 838.347 1173.88 843.658 1174.99C848.977 1175.77 853.469 1176.2 857.135 1176.27C864.8 1176.43 872.475 1176.09 880.161 1175.25C887.854 1174.08 894.88 1172.89 901.239 1171.68C905.592 1170.77 909.272 1170.18 912.278 1169.91C915.618 1169.65 918.454 1169.54 920.787 1169.59C930.118 1169.78 936.891 1172.76 941.106 1178.51C945.655 1184.27 947.839 1191.49 947.66 1200.15C947.467 1209.48 943.476 1217.07 935.687 1222.91C928.238 1228.42 919.313 1232.74 908.913 1235.86C898.853 1238.65 888.314 1240.43 877.295 1241.2C866.603 1242.32 857.925 1242.8 851.26 1242.67C832.597 1242.28 814.496 1238.9 796.958 1232.54C779.759 1225.85 765.802 1215.56 755.087 1201.67C746.65 1190.49 742.077 1177.89 741.367 1163.87C740.99 1149.86 744.755 1137.11 752.661 1125.6C759.54 1115.41 768.707 1107.43 780.162 1101.66C791.958 1095.57 805.52 1092.69 820.85 1093L888.336 1094.4C888.522 1085.4 885.518 1077.51 879.324 1070.71C873.463 1063.92 864.041 1060.06 851.058 1059.12C839.074 1058.21 826.376 1059.61 812.963 1063.33C799.889 1066.73 787.601 1072.48 776.098 1080.58C764.935 1088.35 755.223 1098.48 746.962 1110.98C739.042 1123.15 734.243 1137.56 732.565 1154.19C727.341 1132.74 726.793 1110.9 730.921 1088.64C735.383 1066.4 745.298 1046.43 760.667 1028.75ZM1022.4 1164.19C1030.61 1170.7 1040.04 1174.06 1050.7 1174.28C1060.37 1174.48 1069.26 1171.83 1077.37 1166.33C1085.49 1160.5 1091.34 1152.11 1094.9 1141.19C1095.6 1139.53 1096.49 1136.88 1097.56 1133.24C1098.97 1129.6 1100.56 1125.47 1102.32 1120.84C1104.09 1115.87 1106.03 1110.58 1108.15 1104.95C1110.27 1099.33 1112.38 1093.87 1114.49 1088.58L1130.38 1045.9C1140.27 1018.77 1154.22 1005.38 1172.22 1005.76C1178.55 1005.89 1184.68 1007.68 1190.61 1011.14C1196.88 1014.27 1201.62 1018.7 1204.84 1024.44C1208.34 1032.51 1210.01 1040.05 1209.87 1047.05C1209.73 1053.71 1208.94 1059.7 1207.5 1065C1206.39 1069.98 1204.45 1075.44 1201.66 1081.38L1192.72 1102.2C1189.93 1108.48 1186.95 1115.42 1183.79 1123.02C1180.63 1130.62 1177.48 1138.23 1174.32 1145.83C1171.53 1151.77 1168.91 1157.55 1166.46 1163.17C1164.34 1168.8 1162.4 1173.76 1160.65 1178.05C1159.26 1180.69 1158.04 1183.17 1156.99 1185.48C1155.94 1187.79 1155.06 1190.11 1154.35 1192.43C1148.39 1206.31 1140.48 1217.98 1130.62 1227.44C1121.09 1236.58 1108.33 1240.99 1092.34 1240.65C1078.01 1240.36 1066.26 1236.11 1057.09 1227.92C1047.25 1220.38 1039.01 1207.71 1032.37 1189.9L1028.09 1179.31L1022.4 1164.19ZM1022.25 1002.65C1031.25 1002.84 1039 1006.5 1045.53 1013.64C1051.41 1019.43 1057.03 1029.71 1062.39 1044.49C1064.59 1050.87 1066.63 1056.92 1068.52 1062.62C1070.4 1068.33 1072.11 1074.03 1073.66 1079.73L1088.71 1126.05C1086.56 1133.35 1083.43 1139.61 1079.32 1144.86C1075.21 1149.78 1070.79 1154.02 1066.05 1157.59C1059.97 1161.47 1053.43 1163.33 1046.43 1163.19C1039.43 1163.04 1032.81 1160.91 1026.56 1156.78C1020.64 1152.65 1016.26 1146.89 1013.41 1139.5C1010.88 1133.11 1008.35 1126.39 1005.83 1119.34C1003.31 1111.95 1000.79 1105.23 998.245 1099.18L989.702 1077C985.285 1064.9 983.121 1056.69 983.211 1052.36C982.932 1049.68 982.811 1047.51 982.845 1045.85C982.88 1044.18 982.904 1043.01 982.918 1042.35C983.159 1030.68 986.858 1021.09 994.016 1013.57C1001.17 1006.05 1010.58 1002.41 1022.25 1002.65Z" fill="#F96D00"/>
</svg>
