<svg width="159" height="159" viewBox="0 0 159 159" fill="none" xmlns="http://www.w3.org/2000/svg">
<path d="M44.7552 43.1458C43.0954 44.8055 43.0954 47.4965 44.7552 49.1562L53.7708 58.1718C55.4305 59.8315 58.1215 59.8315 59.7812 58.1718L66.8988 51.0542C68.0943 49.8587 69.7159 49.187 71.4066 49.187H88.8954C90.5861 49.187 92.2076 49.8586 93.4032 51.0542L100.521 58.1718C102.181 59.8315 104.871 59.8315 106.531 58.1718L115.547 49.1562C117.207 47.4965 117.207 44.8055 115.547 43.1458L106.531 34.1302C104.871 32.4704 102.181 32.4704 100.521 34.1302L93.7061 40.9448C92.5106 42.1403 90.8891 42.812 89.1983 42.812H71.1036C69.4129 42.812 67.7914 42.1403 66.5958 40.9448L59.7812 34.1302C58.1215 32.4704 55.4305 32.4704 53.7708 34.1302L44.7552 43.1458Z" fill="url(#paint0_linear_3764_42)"/>
<path d="M108.505 76.781C106.845 78.4407 106.845 81.1317 108.505 82.7914L123.531 97.8174C125.191 99.4772 127.882 99.4772 129.542 97.8174L144.568 82.7914C146.227 81.1317 146.227 78.4407 144.568 76.781L129.542 61.755C127.882 60.0953 125.191 60.0953 123.531 61.755L108.505 76.781Z" fill="url(#paint1_linear_3764_42)"/>
<path d="M44.7552 117.156C43.0954 115.496 43.0954 112.806 44.7552 111.146L53.7708 102.13C55.4305 100.47 58.1215 100.47 59.7812 102.13L66.5958 108.945C67.7914 110.14 69.4129 110.812 71.1036 110.812H89.1983C90.8891 110.812 92.5106 110.14 93.7061 108.945L100.521 102.13C102.181 100.47 104.871 100.47 106.531 102.13L115.547 111.146C117.207 112.806 117.207 115.496 115.547 117.156L106.531 126.172C104.871 127.832 102.181 127.832 100.521 126.172L93.4032 119.054C92.2076 117.859 90.5861 117.187 88.8954 117.187H71.4066C69.7159 117.187 68.0943 117.859 66.8988 119.054L59.7812 126.172C58.1215 127.832 55.4305 127.832 53.7708 126.172L44.7552 117.156Z" fill="url(#paint2_linear_3764_42)"/>
<path d="M15.0052 76.7812C13.3454 78.4409 13.3454 81.1319 15.0052 82.7916L30.0312 97.8176C31.6909 99.4773 34.3819 99.4773 36.0416 97.8176L48.8044 85.0548C49.9999 83.8593 51.6214 83.1876 53.3122 83.1876H59.3281C61.0189 83.1876 62.6404 83.8593 63.8359 85.0548L76.8125 98.0314C78.4722 99.6911 81.1631 99.6911 82.8229 98.0314L97.8489 83.0053C99.5086 81.3456 99.5086 78.6547 97.8489 76.9949L82.8229 61.9689C81.1631 60.3092 78.4722 60.3092 76.8125 61.9689L63.8359 74.9454C62.6404 76.141 61.0189 76.8126 59.3281 76.8126H53.7397C52.0489 76.8126 50.4274 76.141 49.2319 74.9454L36.0416 61.7552C34.3819 60.0954 31.6909 60.0954 30.0312 61.7552L15.0052 76.7812Z" fill="url(#paint3_linear_3764_42)"/>
<defs>
<linearGradient id="paint0_linear_3764_42" x1="79.7864" y1="32.8854" x2="79.7864" y2="127.417" gradientUnits="userSpaceOnUse">
<stop stop-color="#E800D0"/>
<stop offset="1" stop-color="#FA0000"/>
</linearGradient>
<linearGradient id="paint1_linear_3764_42" x1="79.7864" y1="32.8854" x2="79.7864" y2="127.417" gradientUnits="userSpaceOnUse">
<stop stop-color="#E800D0"/>
<stop offset="1" stop-color="#FA0000"/>
</linearGradient>
<linearGradient id="paint2_linear_3764_42" x1="79.7864" y1="32.8854" x2="79.7864" y2="127.417" gradientUnits="userSpaceOnUse">
<stop stop-color="#E800D0"/>
<stop offset="1" stop-color="#FA0000"/>
</linearGradient>
<linearGradient id="paint3_linear_3764_42" x1="79.7864" y1="32.8854" x2="79.7864" y2="127.417" gradientUnits="userSpaceOnUse">
<stop stop-color="#E800D0"/>
<stop offset="1" stop-color="#FA0000"/>
</linearGradient>
</defs>
</svg>
