<svg width="159" height="159" viewBox="0 0 159 159" fill="none" xmlns="http://www.w3.org/2000/svg">
<path d="M44.4837 26.9238C45.9686 24.3519 48.7128 22.7676 51.6825 22.7676L108.961 22.7676C111.931 22.7676 114.675 24.3519 116.16 26.9238L144.8 76.5288C146.285 79.1007 146.285 82.2694 144.8 84.8413L122.754 123.025L115.555 110.557L132.802 80.6851L106.562 35.2363L54.0822 35.2363L36.9249 64.9536H22.5272L44.4837 26.9238Z" fill="#005BE4"/>
<path d="M106.685 125.92L113.302 137.38C112.017 138.166 110.52 138.603 108.961 138.603H51.6826C48.7128 138.603 45.9686 137.018 44.4837 134.446L15.8443 84.8413C15.0767 83.5119 14.7059 82.023 14.7319 80.5395L76.9306 80.539C79.1628 80.539 81.2246 81.7324 82.3365 83.6679L106.647 125.986L106.685 125.92Z" fill="#005BE4"/>
</svg>
