<svg width="159" height="159" viewBox="0 0 159 159" fill="none" xmlns="http://www.w3.org/2000/svg">
<path d="M71.3751 12.156L110.359 34.6631L35.7978 78.1733C32.2242 71.986 34.3429 64.0732 40.5302 60.4995L84.8726 34.8877L71.3751 27.0949L25.5576 53.5477V98.7891L126.508 40.4814L122.047 33.6406H149L138.219 58.4375L133.585 51.3318L130.13 53.3258V113.923L71.3751 147.845L31.4844 125.281L44.5904 117.501L44.6378 117.528L63.5922 106.355L107.559 80.9602C111.133 87.1475 109.014 95.0603 102.827 98.634L57.4034 124.87L71.3751 132.906L117.193 106.453V60.7936L18.5469 117.734L12.6201 113.923V46.0782L71.3751 12.156Z" fill="#FF3737"/>
</svg>
