<svg width="159" height="159" viewBox="0 0 159 159" fill="none" xmlns="http://www.w3.org/2000/svg">
<path fill-rule="evenodd" clip-rule="evenodd" d="M139.759 46.3966C152.082 67.7404 144.769 95.0326 123.425 107.355C122.801 107.716 122.171 108.06 121.537 108.387L121.585 108.418C121.585 108.418 113.303 113.199 86.0494 119.119C65.7586 123.527 50.5682 124.99 44.1307 125.449C43.2481 125.512 42.9215 124.389 43.6878 123.947L74.5829 106.11C75.1236 105.797 75.1552 105.027 74.6522 104.657C74.0987 104.25 73.5536 103.829 73.0174 103.395C72.7997 103.219 72.5101 103.158 72.2407 103.235L14.2063 119.837C13.3556 120.08 12.7456 119.023 13.3817 118.408L56.7761 76.4497C56.9775 76.2549 57.0695 75.9736 57.0257 75.6969C56.9178 75.0155 56.8261 74.3332 56.7504 73.6504C56.6816 73.0297 55.9986 72.6719 55.4579 72.9841L24.5628 90.8214C23.7965 91.2638 22.9871 90.4194 23.483 89.6865C27.0999 84.3414 35.9619 71.9175 49.9244 56.5489C68.6782 35.9065 76.9596 31.1252 76.9596 31.1252L76.963 31.182C77.5632 30.7965 78.1755 30.4232 78.7999 30.0627C100.144 17.7399 127.436 25.0528 139.759 46.3966ZM111.737 87.1122C121.901 81.2441 125.383 68.2478 119.515 58.0841C113.647 47.9204 100.651 44.4381 90.4872 50.3061C80.3235 56.1741 76.8411 69.1704 82.7091 79.3341C88.5772 89.4978 101.573 92.9802 111.737 87.1122Z" fill="#F07300"/>
</svg>
