<svg width="159" height="159" viewBox="0 0 159 159" fill="none" xmlns="http://www.w3.org/2000/svg">
<path d="M97.0868 30.6641C97.0868 40.4197 89.1783 48.3281 79.4227 48.3281C69.6671 48.3281 61.7587 40.4197 61.7587 30.6641C61.7587 20.9085 69.6671 13 79.4227 13C89.1783 13 97.0868 20.9085 97.0868 30.6641Z" fill="#FF9900"/>
<path d="M130.548 70.3793C122.099 75.2571 111.296 72.3624 106.418 63.9138C101.541 55.4652 104.435 44.6621 112.884 39.7843C121.332 34.9065 132.136 37.8012 137.013 46.2498C141.891 54.6984 138.996 65.5015 130.548 70.3793Z" fill="#FF9900"/>
<path d="M21.832 112.75C26.7098 121.198 37.513 124.093 45.9616 119.215C54.4102 114.337 57.3049 103.534 52.4271 95.0857C47.5493 86.6371 36.7461 83.7424 28.2975 88.6202C19.8489 93.498 16.9542 104.301 21.832 112.75Z" fill="#FF9900"/>
<path d="M130.548 88.6207C122.099 83.7429 111.296 86.6376 106.418 95.0862C101.541 103.535 104.435 114.338 112.884 119.216C121.332 124.094 132.136 121.199 137.013 112.75C141.891 104.302 138.996 93.4985 130.548 88.6207Z" fill="#FF9900"/>
<path d="M45.9616 39.7844C37.513 34.9066 26.7098 37.8013 21.832 46.2499C16.9542 54.6985 19.8489 65.5017 28.2975 70.3795C33.7146 73.507 40.0998 73.4392 45.2703 70.7607C48.8627 68.8998 53.2521 67.8813 56.7558 69.9042L57.9565 70.5974C60.6388 72.146 61.7587 75.3634 61.7587 78.4606C61.7587 84.4819 64.7714 89.7995 69.3718 92.9883C72.5394 95.184 75.3438 98.3738 75.3438 102.228V104.568C75.3438 108.422 72.5394 111.612 69.3718 113.808C64.7714 116.997 61.7587 122.314 61.7587 128.336C61.7587 138.091 69.6671 146 79.4227 146C89.1783 146 97.0868 138.091 97.0868 128.336C97.0868 122.349 94.1091 117.059 89.5541 113.864C86.4216 111.667 83.6563 108.493 83.6563 104.666V102.13C83.6563 98.3036 86.4216 95.1293 89.5541 92.9323C94.1091 89.7375 97.0868 84.4468 97.0868 78.4606C97.0868 68.705 89.1783 60.7965 79.4227 60.7965C76.7875 60.7965 74.287 61.3736 72.0407 62.4083C68.5937 63.9961 64.5014 64.7776 61.2147 62.88L59.6619 61.9836C56.5155 60.167 55.1138 56.4653 54.6544 52.8613C53.9807 47.5754 50.9324 42.6543 45.9616 39.7844Z" fill="#FF9900"/>
</svg>
